<?xml version="1.0" encoding="UTF-8"?>
<svg width="895" height="721" viewBox="0 0 895 721" xmlns="http://www.w3.org/2000/svg">
  <rect width="100%" height="100%" fill="#121212" />
  <!-- background screenshot for visual comparison -->
  <image href="../assets/images/3791B23_image.png" x="0" y="0" width="895" height="721" preserveAspectRatio="xMidYMid meet" />

  <!-- Pads (from app resources: ma_pad & stylesheet) -->
    <g id="pads" fill="none" stroke="#00FF66" stroke-width="2">
    <rect id="pad_1" x="419" y="655" width="60" height="57" rx="8"/>
    <text x="449" y="683.5" font-size="10" fill="#ffffff" text-anchor="middle">1</text>
    <rect id="pad_2" x="507" y="655" width="60" height="57" rx="8"/>
    <text x="537" y="683.5" font-size="10" fill="#ffffff" text-anchor="middle">2</text>
    <rect id="pad_3" x="594" y="655" width="60" height="57" rx="8"/>
    <text x="624" y="683.5" font-size="10" fill="#ffffff" text-anchor="middle">3</text>
    <rect id="pad_4" x="682" y="655" width="60" height="57" rx="8"/>
    <text x="712" y="683.5" font-size="10" fill="#ffffff" text-anchor="middle">4</text>
    <rect id="pad_5" x="419" y="569" width="60" height="57" rx="8"/>
    <text x="449" y="597.5" font-size="10" fill="#ffffff" text-anchor="middle">5</text>
    <rect id="pad_6" x="507" y="569" width="60" height="57" rx="8"/>
    <text x="537" y="597.5" font-size="10" fill="#ffffff" text-anchor="middle">6</text>
    <rect id="pad_7" x="594" y="569" width="60" height="57" rx="8"/>
    <text x="624" y="597.5" font-size="10" fill="#ffffff" text-anchor="middle">7</text>
    <rect id="pad_8" x="682" y="569" width="60" height="57" rx="8"/>
    <text x="712" y="597.5" font-size="10" fill="#ffffff" text-anchor="middle">8</text>
    <rect id="pad_9" x="419" y="480" width="60" height="57" rx="8"/>
    <text x="449" y="508.5" font-size="10" fill="#ffffff" text-anchor="middle">9</text>
    <rect id="pad_10" x="507" y="480" width="60" height="57" rx="8"/>
    <text x="537" y="508.5" font-size="10" fill="#ffffff" text-anchor="middle">10</text>
    <rect id="pad_11" x="594" y="480" width="60" height="57" rx="8"/>
    <text x="624" y="508.5" font-size="10" fill="#ffffff" text-anchor="middle">11</text>
    <rect id="pad_12" x="682" y="480" width="60" height="57" rx="8"/>
    <text x="712" y="508.5" font-size="10" fill="#ffffff" text-anchor="middle">12</text>
    <rect id="pad_13" x="419" y="393" width="60" height="57" rx="8"/>
    <text x="449" y="421.5" font-size="10" fill="#ffffff" text-anchor="middle">13</text>
    <rect id="pad_14" x="507" y="393" width="60" height="57" rx="8"/>
    <text x="537" y="421.5" font-size="10" fill="#ffffff" text-anchor="middle">14</text>
    <rect id="pad_15" x="594" y="393" width="60" height="57" rx="8"/>
    <text x="624" y="421.5" font-size="10" fill="#ffffff" text-anchor="middle">15</text>
    <rect id="pad_16" x="682" y="393" width="60" height="57" rx="8"/>
    <text x="712" y="421.5" font-size="10" fill="#ffffff" text-anchor="middle">16</text>
  </g>

  <!-- Buttons -->
  <g id="buttons" fill="none" stroke="#FFD166" stroke-width="2">
    <rect id="button_0" x="836" y="17" width="39" height="32" rx="4"/>
    <rect id="button_1" x="751" y="256" width="30" height="30" rx="4"/>
  </g>

  <!-- Jog wheel (measured) -->
  <g id="jog" fill="none" stroke="#66CCFF" stroke-width="3">
    <!-- bounding circle from Hough/template on screenshot -->
    <circle id="jog_wheel" cx="179" cy="384" r="118" opacity="0.35"/>
  </g>

  <!-- Screens -->
  <g id="screens" fill="none" stroke="#FF6B6B" stroke-width="2">
    <rect id="screen_0" x="469" y="290" width="146" height="200" rx="6"/>
    <rect id="screen_1" x="679" y="453" width="133" height="134" rx="6"/>
  </g>

  <!-- Transport -->
  <g id="transport" fill="none" stroke="#FFD166" stroke-width="2">
    <rect id="transport_bar" x="141" y="5" width="367" height="41" rx="4"/>
  </g>

  <!-- labels -->
  <g font-family="Arial" font-size="12" fill="#ffffff">
    <text x="10" y="14">maschine-layout-v3 (measure overlay)</text>
  </g>
</svg>
